<svg xmlns="http://www.w3.org/2000/svg" width="32" height="32" viewBox="0 0 32 32"><defs><style>.a{fill:#fff;}.b{fill:#fbbb00;}.c{fill:#518ef8;}.d{fill:#28b446;}.e{fill:#f14336;}</style></defs><g transform="translate(-306.732 -462.784)"><circle class="a" cx="16" cy="16" r="16" transform="translate(306.732 462.784)"/><g transform="translate(310.618 465.641)"><path class="b" d="M5.617,146.74l-.882,3.294L1.51,150.1a12.7,12.7,0,0,1-.093-11.834h0l2.871.526,1.258,2.854a7.563,7.563,0,0,0,.071,5.092Z" transform="translate(0 -131.423)"/><path class="c" d="M273.8,208.176a12.668,12.668,0,0,1-4.518,12.25h0l-3.616-.185-.512-3.195a7.553,7.553,0,0,0,3.25-3.857h-6.777v-5.014H273.8Z" transform="translate(-248.676 -197.87)"/><path class="d" d="M49.6,316.647h0a12.677,12.677,0,0,1-19.1-3.877l4.107-3.362a7.537,7.537,0,0,0,10.861,3.859Z" transform="translate(-28.999 -294.092)"/><path class="e" d="M47.969,2.918,43.864,6.279a7.536,7.536,0,0,0-11.111,3.946l-4.128-3.38h0A12.676,12.676,0,0,1,47.969,2.918Z" transform="translate(-27.207)"/></g></g></svg>