<svg xmlns="http://www.w3.org/2000/svg" width="19.5" height="14.854" viewBox="0 0 19.5 14.854"><defs><style>.a{fill:#aeaeae;}</style></defs><g transform="translate(0 -61)"><g transform="translate(0 61)"><path class="a" d="M17.786,61H1.714A1.717,1.717,0,0,0,0,62.714V74.14a1.717,1.717,0,0,0,1.714,1.714H17.786A1.717,1.717,0,0,0,19.5,74.14V62.714A1.717,1.717,0,0,0,17.786,61Zm-.237,1.143L9.786,69.906l-7.83-7.763ZM1.143,73.9V62.945l5.5,5.455Zm.808.808L7.457,69.2l1.929,1.913a.571.571,0,0,0,.806,0l1.881-1.881,5.476,5.476ZM18.357,73.9l-5.476-5.476,5.476-5.476Z" transform="translate(0 -61)"/></g></g></svg>