<svg xmlns="http://www.w3.org/2000/svg" width="20.411" height="19.807" viewBox="0 0 20.411 19.807"><defs><style>.a{fill:#aeaeae;}</style></defs><g transform="translate(0 -7.194)"><g transform="translate(0 7.194)"><path class="a" d="M14.344,351.819a.293.293,0,0,0-.4-.1l-.73.423V351.3a.289.289,0,1,0-.579,0v.843l-.73-.423a.291.291,0,1,0-.293.5l.734.428-.734.428a.291.291,0,0,0,.293.5l.73-.423V354a.289.289,0,1,0,.579,0v-.843l.73.423a.291.291,0,0,0,.293-.5l-.734-.428.734-.428A.29.29,0,0,0,14.344,351.819Z" transform="translate(-10.989 -336.59)"/><path class="a" d="M143.009,353.371a.293.293,0,0,0,.4.1l.73-.423v.843a.289.289,0,0,0,.579,0v-.843l.73.423a.291.291,0,0,0,.293-.5l-.734-.428.734-.428a.291.291,0,1,0-.293-.5l-.73.423V351.2a.289.289,0,0,0-.579,0v.843l-.73-.419a.291.291,0,1,0-.294.5l.734.428-.734.423A.293.293,0,0,0,143.009,353.371Z" transform="translate(-136.976 -336.495)"/><path class="a" d="M131.5,457.028v.512a.224.224,0,0,0,.222.222h3.434a.224.224,0,0,0,.222-.222v-.512a.224.224,0,0,0-.222-.222h-3.434A.221.221,0,0,0,131.5,457.028Z" transform="translate(-125.986 -437.954)"/><path class="a" d="M145.234,11.97h-.025V10.83a3.619,3.619,0,0,0-3.6-3.635,3.551,3.551,0,0,0-3.484,3.543v.109a.3.3,0,0,0,.3.3h.952a.3.3,0,0,0,.3-.3v-.034a2.045,2.045,0,0,1,1.866-2.067,2,2,0,0,1,2.122,1.987v1.233h-2.935v0H138.01a.935.935,0,0,0-.91.931v5.157a.936.936,0,0,0,.935.935h7.195a.936.936,0,0,0,.935-.935V12.905A.93.93,0,0,0,145.234,11.97Zm-3.044,3.744a.2.2,0,0,0-.092.189c0,.377,0,.755,0,1.136h0a.4.4,0,0,1-.214.382.443.443,0,0,1-.662-.382V15.9a.2.2,0,0,0-.084-.18.862.862,0,0,1-.285-1.065.881.881,0,0,1,1.686.348A.8.8,0,0,1,142.19,15.715Z" transform="translate(-131.352 -7.194)"/><path class="a" d="M262.9,457.028v.512a.224.224,0,0,0,.222.222h3.434a.224.224,0,0,0,.222-.222v-.512a.224.224,0,0,0-.222-.222h-3.434A.224.224,0,0,0,262.9,457.028Z" transform="translate(-251.877 -437.954)"/><path class="a" d="M274.409,353.371a.293.293,0,0,0,.4.1l.73-.423v.843a.289.289,0,1,0,.579,0v-.843l.73.423a.291.291,0,0,0,.293-.5l-.734-.428.734-.428a.291.291,0,0,0-.293-.5l-.73.423V351.2a.289.289,0,1,0-.579,0v.843l-.73-.423a.291.291,0,1,0-.294.5l.734.428-.734.428A.293.293,0,0,0,274.409,353.371Z" transform="translate(-262.866 -336.495)"/><path class="a" d="M397.956,456.806h-3.434a.224.224,0,0,0-.222.222v.512a.224.224,0,0,0,.222.222h3.434a.224.224,0,0,0,.222-.222v-.512A.224.224,0,0,0,397.956,456.806Z" transform="translate(-377.768 -437.954)"/><path class="a" d="M.222,457.762H3.656a.224.224,0,0,0,.222-.222v-.512a.224.224,0,0,0-.222-.222H.222a.224.224,0,0,0-.222.222v.512A.224.224,0,0,0,.222,457.762Z" transform="translate(0 -437.954)"/><path class="a" d="M405.867,353.371a.293.293,0,0,0,.4.1l.73-.423v.843a.289.289,0,0,0,.579,0v-.843l.73.423a.291.291,0,0,0,.293-.5l-.734-.428.734-.428a.291.291,0,0,0-.293-.5l-.73.423V351.2a.289.289,0,0,0-.579,0v.843l-.73-.423a.291.291,0,0,0-.294.5l.734.428-.734.428A.289.289,0,0,0,405.867,353.371Z" transform="translate(-388.81 -336.495)"/></g></g></svg>